# xmcd CD database file
#
# Track frame offsets:
#	150
#	24113
#	43171
#	98593
#	118838
#	154170
#
# Disc length: 2485 seconds
#
# Revision: 0
# Processed by: cddbd v1.4PL0 Copyright (c) Steve Scherf et al.
# Submitted via: CDex 1.51
#
DISCID=4009b306
DTITLE=Tony O Connor  -  Zodiac Collection Gemini 
DYEAR=2001
DGENRE=New Age
TTITLE0=Gemini 1
TTITLE1=Gemini 2
TTITLE2=Gemini 3
TTITLE3=Gemini 4
TTITLE4=Gemini 5
TTITLE5=Gemini 6
EXTD=YEAR: 2001
EXTT0=
EXTT1=
EXTT2=
EXTT3=
EXTT4=
EXTT5=
PLAYORDER=
